<svg width="80" height="80" viewBox="0 0 80 80" fill="none" xmlns="http://www.w3.org/2000/svg">
<rect width="80" height="80" rx="40" fill="#FF6060"/>
<path d="M60.8885 26C60.8885 27.1396 60.0307 28.0789 58.9254 28.2073L58.6663 28.2222H56.7892L54.0527 56.0427C53.7449 59.1709 51.1143 61.5556 47.9709 61.5556H31.5839C28.4405 61.5556 25.8098 59.1709 25.5021 56.0427L22.7657 28.2222H20.8885C19.6612 28.2222 18.6663 27.2273 18.6663 26C18.6663 24.7727 19.6612 23.7778 20.8885 23.7778H31.9996C31.9996 19.4822 35.4818 16 39.7774 16C44.0729 16 47.5551 19.4822 47.5551 23.7778H58.6663C59.8936 23.7778 60.8885 24.7727 60.8885 26ZM44.7774 33.2222C43.9336 33.2222 43.2363 33.8492 43.1258 34.6627L43.1107 34.8889V50.4445L43.1258 50.6707C43.2363 51.484 43.9336 52.1111 44.7774 52.1111C45.6211 52.1111 46.3185 51.484 46.4289 50.6707L46.444 50.4445V34.8889L46.4289 34.6627C46.3185 33.8492 45.6211 33.2222 44.7774 33.2222ZM34.7774 33.2222C33.9336 33.2222 33.2363 33.8492 33.1259 34.6627L33.1107 34.8889V50.4445L33.1259 50.6707C33.2363 51.484 33.9336 52.1111 34.7774 52.1111C35.6211 52.1111 36.3185 51.484 36.4289 50.6707L36.444 50.4445V34.8889L36.4289 34.6627C36.3185 33.8492 35.6211 33.2222 34.7774 33.2222ZM39.7774 20.4444C37.9365 20.4444 36.444 21.9368 36.444 23.7778H43.1107C43.1107 21.9368 41.6183 20.4444 39.7774 20.4444Z" fill="white"/>
</svg>
